HIERARCHY
ROOT ROOT
{
	OFFSET 0.000000 56.020000 -5.659234
	CHANNELS 6 Xposition Yposition Zposition Xrotation Yrotation Zrotation 
	JOINT C_spine0001_bind_JNT
	{
		OFFSET 0.000000 1.618999 0.000000
		CHANNELS 3 Xrotation Yrotation Zrotation
		JOINT C_spine0002_bind_JNT
		{
			OFFSET 0.000000 4.942001 0.000001
			CHANNELS 3 Xrotation Yrotation Zrotation
			JOINT C_spine0003_bind_JNT
			{
				OFFSET 0.000000 4.942001 -0.000000
				CHANNELS 3 Xrotation Yrotation Zrotation
				JOINT C_neck0001_bind_JNT
				{
					OFFSET 0.000000 17.026009 -0.000000
					CHANNELS 3 Xrotation Yrotation Zrotation
					JOINT C_neck0002_bind_JNT
					{
						OFFSET 0.000000 3.249985 0.000000
						CHANNELS 3 Xrotation Yrotation Zrotation
						JOINT C_head_bind_JNT
						{
							OFFSET 0.000000 5.278008 0.000000
							CHANNELS 3 Xrotation Yrotation Zrotation
							End Site
							{
								OFFSET 0.000000 0.000000 0.000000
							}
						}
					}
				}
				JOINT L_clavicle_bind_JNT
				{
					OFFSET 4.590000 12.067001 0.834000
					CHANNELS 3 Xrotation Yrotation Zrotation
					JOINT L_armUpper0001_bind_JNT
					{
						OFFSET 7.812635 0.512001 -3.452945
						CHANNELS 3 Xrotation Yrotation Zrotation
						JOINT L_armLower0001_bind_JNT
						{
							OFFSET 15.265892 -6.552116 -0.058157
							CHANNELS 3 Xrotation Yrotation Zrotation
							JOINT L_hand0001_bind_JNT
							{
								OFFSET 14.747667 -6.369995 5.049225
								CHANNELS 3 Xrotation Yrotation Zrotation
								End Site
								{
									OFFSET 0.000000 0.000000 0.000000
								}
							}
						}
					}
				}
				JOINT R_clavicle_bind_JNT
				{
					OFFSET -4.590000 12.067001 0.834000
					CHANNELS 3 Xrotation Yrotation Zrotation
					JOINT R_armUpper0001_bind_JNT
					{
						OFFSET -7.812635 0.512001 -3.452945
						CHANNELS 3 Xrotation Yrotation Zrotation
						JOINT R_armLower0001_bind_JNT
						{
							OFFSET -15.265890 -6.552124 -0.058160
							CHANNELS 3 Xrotation Yrotation Zrotation
							JOINT R_hand0001_bind_JNT
							{
								OFFSET -14.746784 -6.369629 5.048937
								CHANNELS 3 Xrotation Yrotation Zrotation
								End Site
								{
									OFFSET 0.000000 0.000000 0.000000
								}
							}
						}
					}
				}
			}
		}
	}
	JOINT C_pelvis0001_bind_JNT
	{
		OFFSET -0.000000 0.000000 0.000000
		CHANNELS 3 Xrotation Yrotation Zrotation
		JOINT L_legUpper0001_bind_JNT
		{
			OFFSET 6.599999 -6.027000 0.539000
			CHANNELS 3 Xrotation Yrotation Zrotation
			JOINT L_legLower0001_bind_JNT
			{
				OFFSET -0.140713 -19.187443 0.040261
				CHANNELS 3 Xrotation Yrotation Zrotation
				JOINT L_foot0001_bind_JNT
				{
					OFFSET -0.132215 -18.028637 -1.138370
					CHANNELS 3 Xrotation Yrotation Zrotation
					JOINT L_foot0002_bind_JNT
					{
						OFFSET 0.007014 -4.693133 9.886524
						CHANNELS 3 Xrotation Yrotation Zrotation
						End Site
						{
							OFFSET 0.000000 0.000000 0.000000
						}
					}
				}
			}
		}
		JOINT R_legUpper0001_bind_JNT
		{
			OFFSET -6.599999 -6.027000 0.539000
			CHANNELS 3 Xrotation Yrotation Zrotation
			JOINT R_legLower0001_bind_JNT
			{
				OFFSET 0.140710 -19.187164 0.040550
				CHANNELS 3 Xrotation Yrotation Zrotation
				JOINT R_foot0001_bind_JNT
				{
					OFFSET 0.132215 -18.028633 -1.138362
					CHANNELS 3 Xrotation Yrotation Zrotation
					JOINT R_foot0002_bind_JNT
					{
						OFFSET -0.007014 -4.693128 9.886505
						CHANNELS 3 Xrotation Yrotation Zrotation
						End Site
						{
							OFFSET 0.000000 0.000000 0.000000
						}
					}
				}
			}
		}
	}
}
MOTION
Frames: 5
Frame Time: 0.033333
0.000000 48.340069 0.000000 0.031551 -9.694353 -0.024055 5.626757 10.247154 -0.254577 -3.984582 1.268797 0.140651 2.963676 1.058429 -1.052313 11.534405 -0.860739 -0.164657 0.004566 -0.790335 0.196002 -15.017891 -1.267096 -0.556134 15.477675 1.389843 22.377258 -20.513290 -10.434054 -77.903511 10.081743 -2.162971 -9.694387 2.768555 -13.678845 -18.811401 16.534618 -2.206524 -20.364285 -28.473942 5.589194 82.603294 25.226385 -8.083489 1.302767 1.922075 15.489629 24.292805 8.136142 8.132125 -0.935728 -5.036870 13.305427 -2.857341 4.087529 4.943445 -1.576964 -7.210792 5.278204 3.494488 -0.977195 0.007285 -0.366746 -5.519526 -7.406209 2.815848 1.959542 -3.842724 0.602226 -4.626196 1.181088 0.112508 -0.208920 0.210070 -0.881564 
0.122105 48.254642 -0.149390 0.010485 -9.297889 -0.020860 6.351341 9.426125 -0.118168 -4.406614 1.261686 0.123493 3.122694 1.343184 -1.513802 10.782198 -0.842239 -0.141681 -0.043641 -0.236959 -0.018758 -15.413980 -1.692884 -0.588653 14.771889 1.381513 22.589443 -19.235249 -11.265213 -76.976051 9.006125 -3.439950 -10.746449 2.618701 -12.218381 -19.035732 16.378687 -2.131886 -20.061819 -29.195236 4.820711 82.186165 25.998997 -8.108955 1.051711 0.982458 14.775112 25.002323 8.544803 7.005237 -0.398892 -5.414164 14.124878 -4.017034 4.389232 5.291979 -1.148244 -7.132197 4.831246 3.466089 -1.189409 0.047486 0.130051 -5.591692 -7.659388 2.179760 1.940864 -3.365534 0.787085 -4.297448 1.987658 -0.123093 -0.833024 0.362339 -0.592413 
0.142973 48.243103 -0.201109 0.001594 -9.358394 -0.015422 6.502895 9.350218 -0.288931 -4.482848 1.389645 0.217659 3.361414 1.334798 -1.555241 10.497964 -0.857716 -0.154201 -0.095837 -0.149289 0.039812 -15.966157 -1.624124 -0.650097 14.607180 1.218153 22.693703 -19.282618 -11.178192 -76.943420 8.733972 -4.001390 -10.823389 2.355452 -11.616603 -18.747639 16.463783 -2.217279 -19.954445 -29.663588 4.968713 82.774696 25.761484 -8.081955 1.001607 1.810095 14.371957 24.608641 8.780017 6.931403 -0.476634 -5.442690 14.265547 -4.378972 4.128467 5.229187 -0.886047 -7.415032 5.350095 3.660363 -0.980615 0.068084 0.067297 -5.931492 -7.700942 2.353297 1.897300 -3.470030 0.969150 -4.090486 2.007610 -0.309655 -0.856123 0.377993 -0.537125 
0.144325 48.259636 -0.205163 0.022292 -9.344338 -0.033766 6.501101 9.227510 -0.160665 -4.279606 1.381117 0.041941 3.252958 1.319818 -1.525900 10.459946 -0.827424 -0.164714 -0.014133 -0.053325 -0.000181 -16.103233 -1.701283 -0.659730 14.621840 1.312161 22.633297 -19.297516 -11.534866 -76.928780 8.683785 -4.189694 -10.824861 2.743483 -11.510199 -18.711807 16.451693 -2.135488 -19.827988 -29.931086 5.328346 82.861397 25.682617 -8.356914 1.083385 1.820833 14.295104 24.177504 8.821977 6.910601 -0.476513 -5.572674 14.237728 -4.240512 4.213642 5.314577 -0.977943 -7.614619 5.646322 3.704518 -0.873267 -0.014615 0.046925 -6.094449 -7.717434 2.254738 2.008397 -3.203080 1.170142 -4.041130 1.843720 -0.439706 -0.764259 0.288342 -0.508533 
0.143147 48.275261 -0.228767 0.009381 -9.407576 -0.017844 6.594939 9.282372 -0.218843 -4.275159 1.433425 0.111545 3.343342 1.191451 -1.579196 10.426745 -0.759189 -0.229676 -0.102406 -0.060700 0.034736 -16.196608 -1.399030 -0.646745 14.721686 1.158431 22.442108 -19.287136 -11.771344 -76.605873 8.485550 -4.406757 -10.922910 3.122831 -11.136953 -18.584230 16.411192 -2.081138 -19.743597 -29.992336 5.351708 82.863106 25.604292 -8.319718 0.994137 1.939454 14.186281 23.750101 8.751870 6.995465 -0.496016 -5.524668 14.345383 -4.175421 4.380699 5.122375 -1.066001 -7.713251 5.754128 3.763994 -0.924570 0.168356 0.002261 -6.273282 -7.801537 2.289997 2.435855 -3.028966 1.080146 -4.137862 1.896785 -0.415184 -0.895413 0.221507 -0.527933 
